<?xml version="1.0" encoding="utf-8"?>
<!-- Generator: Adobe Illustrator 22.0.1, SVG Export Plug-In . SVG Version: 6.00 Build 0)  -->
<svg version="1.1" xmlns="http://www.w3.org/2000/svg" xmlns:xlink="http://www.w3.org/1999/xlink" x="0px" y="0px"
	 viewBox="0 0 120.2 42.5" style="enable-background:new 0 0 120.2 42.5;" xml:space="preserve">
<style type="text/css">
	.st0{display:none;}
	.st1{display:inline;fill:#FDB633;}
</style>
<g id="Layer_1">
	<g>
		<g>
			<g>
				<path d="M28.9,26.9c1.4-1.7,2.2-4,2-6.5c-0.4-4.3-3.9-7.7-8.1-8.1c-5.6-0.5-10.3,4.2-9.7,9.8c0.4,3.8,3.2,7,6.9,7.8
					c1.5,0.3,2.9,0.3,4.3-0.1c0.1,0,0.1-0.1,0.1-0.2l-0.4-0.6c0,0-0.1,0-0.1,0c-1,0.2-2.2,0.3-3.3,0c-3.4-0.6-6-3.4-6.5-6.8
					c-0.7-5.3,3.7-9.7,8.9-9.2c3.8,0.4,6.8,3.4,7.2,7.2c0.2,2.2-0.4,4.3-1.7,5.8c-0.2,0.2-0.3,0.4-0.5,0.6c0,0,0,0.1,0,0.1l4.7,5.9
					c0,0,0.1,0.1,0.1,0.1h0.8c0.1,0,0.1-0.1,0.1-0.1L28.9,26.9z"/>
			</g>
			<g>
				<path d="M33.7,21.3c0-6.7-5.7-12.2-12.6-11.7c-5.8,0.4-10.5,5.1-10.9,10.9C9.8,27.3,15.2,33,22,33c2.2,0,4.2-0.6,5.9-1.6
					l1.2,1.6c0,0,0.1,0,0.1,0h0.8c0.1,0,0.1-0.1,0.1-0.1l-4.7-5.9c0,0,0,0-0.1,0h-0.8c-0.1,0-0.1,0.1-0.1,0.2l2.9,3.6
					c-2,1.1-4.3,1.7-6.8,1.3c-4.9-0.6-8.8-4.5-9.4-9.4C10.3,15.8,16,9.9,22.8,10.4c5.2,0.4,9.4,4.5,9.9,9.6c0.3,2.5-0.3,4.9-1.5,6.8
					c0,0,0,0.1,0,0.1l0.4,0.5c0,0.1,0.1,0.1,0.2,0C33,25.7,33.7,23.6,33.7,21.3z"/>
			</g>
		</g>
		<g>
			<g>
				<path d="M75.6,15.9l-0.7-0.8c0.4-0.5,0.6-1,0.6-1.6c0-1.5-1.2-2.7-2.7-2.7c-1.5,0-2.7,1.2-2.7,2.7c0,1.5,1.2,2.7,2.7,2.7
					c0.5,0,0.9-0.1,1.3-0.3l0.4,0.4c0,0.1,0.1,0.1,0.2,0.1h0.8C75.6,16.3,75.8,16.1,75.6,15.9z M73.5,15c-0.2,0.1-0.4,0.1-0.7,0.1
					c-0.9,0-1.7-0.8-1.7-1.7c0-0.9,0.8-1.7,1.7-1.7c0.9,0,1.7,0.8,1.7,1.7c0,0.3-0.1,0.6-0.2,0.8C74.1,14.6,73.8,14.9,73.5,15z"/>
			</g>
			<g>
				<g>
					<g>
						<path d="M58.5,10.9h-1.8c-0.1,0-0.1,0.1-0.1,0.1v2.3c0,0.1,0.1,0.1,0.1,0.1h0.7c0.1,0,0.1-0.1,0.1-0.1v-1.6h0.8
							c0.9,0,1.7,0.8,1.7,1.7c0,1-0.7,1.7-1.7,1.7H58h-0.4h-0.8c-0.1,0-0.1,0.1-0.1,0.1v0.6c0,0.1,0.1,0.1,0.1,0.1h1.7
							c1.4,0,2.6-1.2,2.6-2.6C61.1,12,59.9,10.9,58.5,10.9z"/>
					</g>
				</g>
				<g>
					<path d="M45.4,10.8c0.7,0,1.3,0.2,1.8,0.7c0.1,0.1,0.1,0.1,0,0.2l-0.5,0.5c-0.1,0.1-0.1,0.1-0.2,0c-0.3-0.3-0.7-0.4-1.1-0.4
						c-0.9,0-1.6,0.8-1.6,1.7c0,0.9,0.7,1.7,1.7,1.7c0.4,0,0.8-0.2,1.1-0.4c0.1-0.1,0.1,0,0.2,0l0.5,0.5c0.1,0.1,0,0.1,0,0.2
						c-0.5,0.5-1.1,0.7-1.8,0.7c-1.5,0-2.7-1.2-2.7-2.7C42.7,12,43.9,10.8,45.4,10.8z"/>
				</g>
				<g>
					<path d="M51.7,10.8c1.5,0,2.7,1.2,2.7,2.7c0,1.5-1.2,2.7-2.7,2.7c-1.5,0-2.7-1.2-2.7-2.7C49,12,50.2,10.8,51.7,10.8z
						 M51.7,15.2c0.9,0,1.7-0.8,1.7-1.7c0-0.9-0.8-1.7-1.7-1.7c-0.9,0-1.7,0.8-1.7,1.7C50,14.4,50.8,15.2,51.7,15.2z"/>
				</g>
				<g>
					<path d="M63.1,11c0-0.1,0.1-0.1,0.1-0.1h3c0.1,0,0.1,0.1,0.1,0.1v0.6c0,0.1-0.1,0.1-0.1,0.1H64V13h1.8c0.1,0,0.1,0.1,0.1,0.1
						v0.6c0,0.1-0.1,0.1-0.1,0.1H64v1.3h2.2c0.1,0,0.1,0.1,0.1,0.1v0.6c0,0.1-0.1,0.1-0.1,0.1h-3c-0.1,0-0.1-0.1-0.1-0.1V11z"/>
				</g>
			</g>
		</g>
	</g>
</g>
<g id="WebFactory" class="st0">
	<path class="st1" d="M42.8,19.1c0-0.1,0-0.2,0.1-0.2h0.7c0.1,0,0.1,0.1,0.1,0.1l0.8,2.9h0l1.2-3c0,0,0.1-0.1,0.1-0.1H46
		c0.1,0,0.1,0,0.1,0.1l1.2,3h0l0.8-2.9c0-0.1,0.1-0.1,0.1-0.1h0.7c0.1,0,0.2,0.1,0.1,0.2l-1.4,4.9c0,0.1-0.1,0.1-0.1,0.1h-0.1
		c-0.1,0-0.1,0-0.1-0.1l-1.3-3.3h0l-1.3,3.3c0,0-0.1,0.1-0.1,0.1h-0.1c-0.1,0-0.1,0-0.1-0.1L42.8,19.1z"/>
	<path class="st1" d="M51.3,19.1c0-0.1,0.1-0.1,0.1-0.1h3c0.1,0,0.1,0.1,0.1,0.1v0.6c0,0.1-0.1,0.1-0.1,0.1h-2.2v1.2h1.8
		c0.1,0,0.1,0.1,0.1,0.1v0.6c0,0.1-0.1,0.1-0.1,0.1h-1.8v1.3h2.2c0.1,0,0.1,0.1,0.1,0.1V24c0,0.1-0.1,0.1-0.1,0.1h-3
		c-0.1,0-0.1-0.1-0.1-0.1V19.1z"/>
	<path class="st1" d="M57.1,19.1c0-0.1,0.1-0.1,0.1-0.1h1.7c0.9,0,1.6,0.6,1.6,1.4c0,0.6-0.5,1-0.8,1.2c0.4,0.1,1,0.5,1,1.2
		c0,0.8-0.7,1.4-1.6,1.4h-1.8c-0.1,0-0.1-0.1-0.1-0.1V19.1z M58.8,21.1c0.4,0,0.6-0.3,0.6-0.7c0-0.4-0.3-0.6-0.6-0.6h-0.8v1.3H58.8z
		 M58.9,23.3c0.4,0,0.7-0.3,0.7-0.7c0-0.4-0.4-0.6-0.8-0.6h-0.8v1.3H58.9z"/>
	<path class="st1" d="M42.8,26.7c0-0.1,0.1-0.1,0.1-0.1h3c0.1,0,0.1,0.1,0.1,0.1v0.6c0,0.1-0.1,0.1-0.1,0.1h-2.2v1.4h1.8
		c0.1,0,0.1,0.1,0.1,0.1v0.6c0,0.1-0.1,0.1-0.1,0.1h-1.8v1.9c0,0.1-0.1,0.1-0.1,0.1h-0.7c-0.1,0-0.1-0.1-0.1-0.1V26.7z"/>
	<path class="st1" d="M47.6,31.5l2.3-5c0,0,0.1-0.1,0.1-0.1H50c0.1,0,0.1,0,0.1,0.1l2.3,5c0,0.1,0,0.2-0.1,0.2h-0.6
		c-0.1,0-0.2,0-0.2-0.1l-0.4-0.8h-2.2l-0.4,0.8c0,0.1-0.1,0.1-0.2,0.1h-0.6C47.6,31.7,47.5,31.6,47.6,31.5z M50.7,30L50,28.3h0
		L49.3,30H50.7z"/>
	<path class="st1" d="M56.8,26.5c0.7,0,1.3,0.2,1.8,0.7c0.1,0.1,0.1,0.1,0,0.2l-0.4,0.5c-0.1,0.1-0.1,0.1-0.2,0
		c-0.3-0.3-0.7-0.4-1.1-0.4c-0.9,0-1.6,0.8-1.6,1.7c0,0.9,0.7,1.7,1.6,1.7c0.4,0,0.8-0.2,1.1-0.4c0.1-0.1,0.1,0,0.2,0l0.5,0.5
		c0.1,0.1,0,0.1,0,0.2c-0.5,0.5-1.1,0.7-1.8,0.7c-1.5,0-2.7-1.2-2.7-2.6C54.2,27.7,55.3,26.5,56.8,26.5z"/>
	<path class="st1" d="M61.7,27.4h-1.1c-0.1,0-0.1-0.1-0.1-0.1v-0.6c0-0.1,0.1-0.1,0.1-0.1h3.2c0.1,0,0.1,0.1,0.1,0.1v0.6
		c0,0.1-0.1,0.1-0.1,0.1h-1.1v4.1c0,0.1-0.1,0.1-0.1,0.1h-0.7c-0.1,0-0.1-0.1-0.1-0.1V27.4z"/>
	<path class="st1" d="M68.4,26.5c1.5,0,2.6,1.2,2.6,2.7c0,1.5-1.2,2.6-2.6,2.6s-2.6-1.2-2.6-2.6C65.8,27.7,67,26.5,68.4,26.5z
		 M68.4,30.8c0.9,0,1.7-0.8,1.7-1.7c0-0.9-0.8-1.7-1.7-1.7c-0.9,0-1.7,0.8-1.7,1.7C66.7,30.1,67.5,30.8,68.4,30.8z"/>
	<path class="st1" d="M73.5,26.7c0-0.1,0.1-0.1,0.1-0.1h2.1c0.9,0,1.6,0.7,1.6,1.6c0,0.7-0.4,1.2-1.1,1.5l1,1.9
		c0.1,0.1,0,0.2-0.1,0.2h-0.8c-0.1,0-0.1,0-0.1-0.1l-1-2h-0.8v1.9c0,0.1-0.1,0.1-0.1,0.1h-0.7c-0.1,0-0.1-0.1-0.1-0.1V26.7z
		 M75.7,28.9c0.4,0,0.7-0.3,0.7-0.8c0-0.4-0.3-0.7-0.7-0.7h-1.2v1.5H75.7z"/>
	<path class="st1" d="M80.9,29.2l-1.7-2.5c-0.1-0.1,0-0.2,0.1-0.2h0.8c0.1,0,0.1,0,0.1,0.1l1.2,1.7l1.2-1.7c0,0,0.1-0.1,0.1-0.1h0.8
		c0.1,0,0.2,0.1,0.1,0.2l-1.7,2.5v2.3c0,0.1-0.1,0.1-0.1,0.1H81c-0.1,0-0.1-0.1-0.1-0.1V29.2z"/>
</g>
<g id="SpeielWiese">
	<g>
		<path d="M42.9,23.5l0.3-0.5c0.1-0.1,0.2-0.1,0.3-0.1c0,0,0.6,0.5,1.1,0.5c0.4,0,0.7-0.3,0.7-0.6c0-0.4-0.3-0.6-0.9-0.9
			c-0.7-0.3-1.4-0.7-1.4-1.6c0-0.7,0.5-1.4,1.7-1.4c0.8,0,1.3,0.4,1.5,0.5c0.1,0,0.1,0.2,0,0.2l-0.3,0.4c-0.1,0.1-0.2,0.1-0.3,0.1
			c-0.1,0-0.6-0.4-1-0.4c-0.4,0-0.7,0.3-0.7,0.5c0,0.4,0.3,0.6,0.9,0.8c0.7,0.3,1.6,0.7,1.6,1.7c0,0.8-0.7,1.5-1.7,1.5
			c-0.9,0-1.5-0.4-1.6-0.6C42.9,23.6,42.8,23.6,42.9,23.5z"/>
		<path d="M48.7,19.1c0-0.1,0.1-0.1,0.1-0.1h1.8c0.9,0,1.7,0.7,1.7,1.6c0,0.9-0.8,1.7-1.7,1.7h-0.9v1.8c0,0.1-0.1,0.1-0.1,0.1h-0.7
			c-0.1,0-0.1-0.1-0.1-0.1V19.1z M50.6,21.4c0.4,0,0.8-0.3,0.8-0.8c0-0.4-0.3-0.7-0.8-0.7h-0.9v1.5H50.6z"/>
		<path d="M54.6,19.1c0-0.1,0.1-0.1,0.1-0.1h0.7c0.1,0,0.1,0.1,0.1,0.1v4.9c0,0.1-0.1,0.1-0.1,0.1h-0.7c-0.1,0-0.1-0.1-0.1-0.1V19.1
			z"/>
		<path d="M58.5,19.1c0-0.1,0.1-0.1,0.1-0.1h3c0.1,0,0.1,0.1,0.1,0.1v0.6c0,0.1-0.1,0.1-0.1,0.1h-2.2v1.2h1.8c0.1,0,0.1,0.1,0.1,0.1
			v0.6c0,0.1-0.1,0.1-0.1,0.1h-1.8v1.3h2.2c0.1,0,0.1,0.1,0.1,0.1v0.6c0,0.1-0.1,0.1-0.1,0.1h-3c-0.1,0-0.1-0.1-0.1-0.1V19.1z"/>
		<path d="M64.3,19.1c0-0.1,0.1-0.1,0.1-0.1h0.7c0.1,0,0.1,0.1,0.1,0.1v4.2h1.9c0.1,0,0.1,0.1,0.1,0.1v0.6c0,0.1-0.1,0.1-0.1,0.1
			h-2.7c-0.1,0-0.1-0.1-0.1-0.1V19.1z"/>
		<path d="M68.8,19.2c0-0.1,0-0.2,0.1-0.2h0.7c0.1,0,0.1,0.1,0.1,0.1l0.8,3h0l1.2-3.1c0,0,0.1-0.1,0.1-0.1H72c0.1,0,0.1,0,0.1,0.1
			l1.2,3.1h0l0.8-3c0-0.1,0.1-0.1,0.1-0.1h0.7c0.1,0,0.2,0.1,0.1,0.2l-1.4,5c0,0.1-0.1,0.1-0.1,0.1h-0.1c-0.1,0-0.1,0-0.1-0.1
			L72,20.8h0l-1.3,3.4c0,0-0.1,0.1-0.1,0.1h-0.1c-0.1,0-0.1,0-0.1-0.1L68.8,19.2z"/>
		<path d="M77.4,19.1c0-0.1,0.1-0.1,0.1-0.1h0.7c0.1,0,0.1,0.1,0.1,0.1v4.9c0,0.1-0.1,0.1-0.1,0.1h-0.7c-0.1,0-0.1-0.1-0.1-0.1V19.1
			z"/>
		<path d="M81.3,19.1c0-0.1,0.1-0.1,0.1-0.1h3c0.1,0,0.1,0.1,0.1,0.1v0.6c0,0.1-0.1,0.1-0.1,0.1h-2.2v1.2h1.8c0.1,0,0.1,0.1,0.1,0.1
			v0.6c0,0.1-0.1,0.1-0.1,0.1h-1.8v1.3h2.2c0.1,0,0.1,0.1,0.1,0.1v0.6c0,0.1-0.1,0.1-0.1,0.1h-3c-0.1,0-0.1-0.1-0.1-0.1V19.1z"/>
		<path d="M86.8,23.5l0.3-0.5c0.1-0.1,0.2-0.1,0.3-0.1c0,0,0.6,0.5,1.1,0.5c0.4,0,0.7-0.3,0.7-0.6c0-0.4-0.3-0.6-0.9-0.9
			c-0.7-0.3-1.4-0.7-1.4-1.6c0-0.7,0.5-1.4,1.7-1.4c0.8,0,1.3,0.4,1.5,0.5c0.1,0,0.1,0.2,0,0.2l-0.3,0.4c-0.1,0.1-0.2,0.1-0.3,0.1
			c-0.1,0-0.6-0.4-1-0.4c-0.4,0-0.7,0.3-0.7,0.5c0,0.4,0.3,0.6,0.9,0.8c0.7,0.3,1.6,0.7,1.6,1.7c0,0.8-0.7,1.5-1.7,1.5
			c-0.9,0-1.5-0.4-1.6-0.6C86.8,23.6,86.8,23.6,86.8,23.5z"/>
		<path d="M92.7,19.1c0-0.1,0.1-0.1,0.1-0.1h3c0.1,0,0.1,0.1,0.1,0.1v0.6c0,0.1-0.1,0.1-0.1,0.1h-2.2v1.2h1.8c0.1,0,0.1,0.1,0.1,0.1
			v0.6c0,0.1-0.1,0.1-0.1,0.1h-1.8v1.3h2.2c0.1,0,0.1,0.1,0.1,0.1v0.6c0,0.1-0.1,0.1-0.1,0.1h-3c-0.1,0-0.1-0.1-0.1-0.1V19.1z"/>
		<path d="M102.6,21.4L102.6,21.4l-0.2-0.2c-0.3-0.3-0.5-0.6-0.5-1.1c0-0.6,0.5-1.2,1.4-1.2c0.8,0,1.4,0.5,1.4,1.2
			c0,0.8-0.8,1.2-0.9,1.4l0.9,0.9c0.1-0.2,0.2-0.5,0.3-0.8c0-0.2,0.1-0.2,0.2-0.2l0.4,0.1c0.2,0.1,0.1,0.2,0.1,0.3
			c-0.1,0.5-0.4,1-0.5,1.2l0.7,0.6c0.1,0.1,0.2,0.2,0,0.3l-0.3,0.3c-0.1,0.1-0.2,0.1-0.3,0l-0.5-0.5c-0.1,0.2-0.7,0.6-1.6,0.6
			c-0.9,0-1.6-0.6-1.6-1.4C101.5,21.9,102.4,21.5,102.6,21.4z M103.2,23.5c0.6,0,0.8-0.3,1-0.4l-1.1-1.2c-0.1,0.1-0.6,0.3-0.6,0.9
			C102.4,23.2,102.8,23.5,103.2,23.5z M103.9,20.2c0-0.3-0.2-0.6-0.6-0.6c-0.3,0-0.6,0.2-0.6,0.5c0,0.3,0.2,0.4,0.4,0.7l0.2,0.2
			C103.4,20.9,103.9,20.6,103.9,20.2z"/>
	</g>
	<g>
		<path d="M43.2,26.6c0-0.1,0.1-0.1,0.1-0.1h1.8c1.4,0,2.6,1.2,2.6,2.6c0,1.4-1.2,2.6-2.6,2.6h-1.8c-0.1,0-0.1-0.1-0.1-0.1V26.6z
			 M45,30.8c1,0,1.7-0.7,1.7-1.7c0-1-0.7-1.7-1.7-1.7h-0.8v3.4H45z"/>
		<path d="M50.2,26.6c0-0.1,0.1-0.1,0.1-0.1h3c0.1,0,0.1,0.1,0.1,0.1v0.6c0,0.1-0.1,0.1-0.1,0.1h-2.2v1.2H53c0.1,0,0.1,0.1,0.1,0.1
			v0.6c0,0.1-0.1,0.1-0.1,0.1h-1.8v1.3h2.2c0.1,0,0.1,0.1,0.1,0.1v0.6c0,0.1-0.1,0.1-0.1,0.1h-3c-0.1,0-0.1-0.1-0.1-0.1V26.6z"/>
		<path d="M56.6,26.5c0-0.1,0.1-0.1,0.1-0.1h0.1c0.1,0,0.1,0,0.1,0.1l1.6,3.5c0,0,0,0,0,0l1.6-3.5c0,0,0.1-0.1,0.1-0.1h0.1
			c0.1,0,0.1,0.1,0.1,0.1l0.9,5c0,0.1,0,0.2-0.1,0.2h-0.7c-0.1,0-0.1-0.1-0.1-0.1l-0.4-2.8c0,0,0,0,0,0l-1.3,2.9
			c0,0-0.1,0.1-0.1,0.1h-0.1c-0.1,0-0.1,0-0.1-0.1l-1.3-2.9c0,0,0,0,0,0l-0.4,2.8c0,0.1-0.1,0.1-0.1,0.1h-0.7
			c-0.1,0-0.2-0.1-0.1-0.2L56.6,26.5z"/>
		<path d="M66.4,26.4c1.5,0,2.7,1.2,2.7,2.7s-1.2,2.7-2.7,2.7s-2.7-1.2-2.7-2.7S64.9,26.4,66.4,26.4z M66.4,30.8
			c0.9,0,1.7-0.8,1.7-1.7c0-0.9-0.8-1.7-1.7-1.7s-1.7,0.8-1.7,1.7C64.7,30.1,65.4,30.8,66.4,30.8z"/>
		<path d="M71.2,31l0.3-0.5c0.1-0.1,0.2-0.1,0.3-0.1c0,0,0.6,0.5,1.1,0.5c0.4,0,0.7-0.3,0.7-0.6c0-0.4-0.3-0.6-0.9-0.9
			c-0.7-0.3-1.4-0.7-1.4-1.6c0-0.7,0.5-1.4,1.7-1.4c0.8,0,1.3,0.4,1.5,0.5c0.1,0,0.1,0.2,0,0.2l-0.3,0.4c-0.1,0.1-0.2,0.1-0.3,0.1
			c-0.1,0-0.6-0.4-1-0.4c-0.4,0-0.7,0.3-0.7,0.5c0,0.3,0.3,0.6,0.9,0.8c0.7,0.3,1.6,0.7,1.6,1.7c0,0.8-0.7,1.5-1.7,1.5
			c-0.9,0-1.5-0.4-1.6-0.6C71.2,31.1,71.1,31.1,71.2,31z"/>
		<path d="M77,26.6c0-0.1,0.1-0.1,0.1-0.1h3c0.1,0,0.1,0.1,0.1,0.1v0.6c0,0.1-0.1,0.1-0.1,0.1H78v1.2h1.8c0.1,0,0.1,0.1,0.1,0.1v0.6
			c0,0.1-0.1,0.1-0.1,0.1H78v1.3h2.2c0.1,0,0.1,0.1,0.1,0.1v0.6c0,0.1-0.1,0.1-0.1,0.1h-3c-0.1,0-0.1-0.1-0.1-0.1V26.6z"/>
		<path d="M82.9,26.6c0-0.1,0.1-0.1,0.1-0.1h0.7c0.1,0,0.1,0.1,0.1,0.1v4.9c0,0.1-0.1,0.1-0.1,0.1H83c-0.1,0-0.1-0.1-0.1-0.1V26.6z"
			/>
		<path d="M87.4,27.4h-1.1c-0.1,0-0.1-0.1-0.1-0.1v-0.6c0-0.1,0.1-0.1,0.1-0.1h3.3c0.1,0,0.1,0.1,0.1,0.1v0.6c0,0.1-0.1,0.1-0.1,0.1
			h-1.1v4.2c0,0.1-0.1,0.1-0.1,0.1h-0.7c-0.1,0-0.1-0.1-0.1-0.1V27.4z"/>
		<path d="M91.9,26.6c0-0.1,0.1-0.1,0.1-0.1h3c0.1,0,0.1,0.1,0.1,0.1v0.6c0,0.1-0.1,0.1-0.1,0.1h-2.2v1.2h1.8c0.1,0,0.1,0.1,0.1,0.1
			v0.6c0,0.1-0.1,0.1-0.1,0.1h-1.8v1.3h2.2c0.1,0,0.1,0.1,0.1,0.1v0.6c0,0.1-0.1,0.1-0.1,0.1h-3c-0.1,0-0.1-0.1-0.1-0.1V26.6z"/>
	</g>
</g>
</svg>
