<svg id="Layer_1" data-name="Layer 1" xmlns="http://www.w3.org/2000/svg" viewBox="0 0 115.17 39.13"><defs><style>.cls-1{fill:#231f20}</style></defs><title>SQ_LOGO</title><path class="cls-1" d="M30.62 28.68A14.51 14.51 0 1 0 23 33.52a.17.17 0 0 0 .09-.27l-.71-.9a.16.16 0 0 0-.17-.06 13.12 13.12 0 1 1 7.5-4.72q-.38.49-.81.94a.18.18 0 0 0 0 .24l7.63 9.61a.24.24 0 0 0 .19.09h1.32a.15.15 0 0 0 .12-.24z"/><path class="cls-1" d="M38.37 19.5A19 19 0 1 0 29 35.85l2 2.52a.21.21 0 0 0 .16.08h1.37a.14.14 0 0 0 .11-.22l-7.56-9.54a.17.17 0 0 0-.13-.06H23.6a.16.16 0 0 0-.13.26l4.65 5.88a17.65 17.65 0 1 1 6.34-6.21.17.17 0 0 0 0 .19l.69.87a.17.17 0 0 0 .28 0 18.84 18.84 0 0 0 2.94-10.12zM48.47 16a.21.21 0 0 1 .21-.29h1.09a.25.25 0 0 1 .21.17l1.24 4.75 1.89-4.9a.19.19 0 0 1 .2-.13h.21a.19.19 0 0 1 .2.13l1.9 4.9L57 15.86a.24.24 0 0 1 .21-.17h1.09a.21.21 0 0 1 .21.29l-2.25 8a.23.23 0 0 1-.21.17h-.19a.2.2 0 0 1-.2-.13l-2.13-5.39h-.06L51.33 24a.2.2 0 0 1-.2.13h-.19a.23.23 0 0 1-.21-.17zM62.25 15.92a.23.23 0 0 1 .23-.23h4.84a.23.23 0 0 1 .23.23v1a.23.23 0 0 1-.23.23H63.8v2h2.94a.23.23 0 0 1 .23.23v1a.23.23 0 0 1-.23.23H63.8v1.99h3.52a.23.23 0 0 1 .23.23v1a.23.23 0 0 1-.23.23h-4.84a.23.23 0 0 1-.23-.23zM71.63 15.92a.23.23 0 0 1 .23-.23h2.73a2.33 2.33 0 0 1 2.51 2.2 2.27 2.27 0 0 1-1.31 1.89 2.14 2.14 0 0 1 1.55 1.94 2.41 2.41 0 0 1-2.6 2.28h-2.88a.23.23 0 0 1-.23-.23zm2.81 3.27a1 1 0 0 0 1-1.07 1 1 0 0 0-1-1h-1.27v2.08zm.17 3.43a1.06 1.06 0 0 0 1.07-1.08 1.15 1.15 0 0 0-1.21-1h-1.3v2.12zM48.73 30.36a.23.23 0 0 1 .23-.23h4.84a.23.23 0 0 1 .23.23v1a.23.23 0 0 1-.23.23h-3.52v2.21h2.94a.23.23 0 0 1 .23.23v1a.23.23 0 0 1-.23.23h-2.94v3a.23.23 0 0 1-.23.23H49a.23.23 0 0 1-.23-.23zM56.44 38.15l3.7-8a.21.21 0 0 1 .2-.13h.12a.2.2 0 0 1 .2.13l3.67 8a.21.21 0 0 1-.2.31h-1a.34.34 0 0 1-.34-.24l-.58-1.29h-3.6l-.61 1.3a.36.36 0 0 1-.35.24h-1a.21.21 0 0 1-.21-.32zm5.14-2.54L60.39 33l-1.17 2.62zM71.43 30a4 4 0 0 1 2.88 1.11.22.22 0 0 1 0 .33l-.73.75a.19.19 0 0 1-.3 0 2.82 2.82 0 0 0-1.83-.7 2.76 2.76 0 0 0 0 5.52 2.86 2.86 0 0 0 1.82-.68.22.22 0 0 1 .3 0l.74.76a.23.23 0 0 1 0 .32 4.09 4.09 0 0 1-2.89 1.15 4.28 4.28 0 1 1 0-8.57zM79.38 31.56h-1.82a.23.23 0 0 1-.23-.23v-1a.23.23 0 0 1 .23-.23h5.2a.23.23 0 0 1 .23.23v1a.23.23 0 0 1-.23.23h-1.82v6.68a.23.23 0 0 1-.23.23H79.6a.23.23 0 0 1-.23-.23zM90.2 30a4.28 4.28 0 1 1-4.27 4.3A4.28 4.28 0 0 1 90.2 30zm0 7a2.74 2.74 0 1 0-2.73-2.73A2.74 2.74 0 0 0 90.2 37zM98.42 30.36a.23.23 0 0 1 .23-.23H102a2.58 2.58 0 0 1 2.59 2.56 2.63 2.63 0 0 1-1.76 2.4l1.63 3a.23.23 0 0 1-.2.34h-1.25a.2.2 0 0 1-.19-.11l-1.58-3.15H100v3a.23.23 0 0 1-.23.23h-1.12a.23.23 0 0 1-.23-.23zm3.5 3.57a1.21 1.21 0 0 0 1.18-1.21 1.18 1.18 0 0 0-1.18-1.15H100v2.37zM110.32 34.45l-2.71-4a.22.22 0 0 1 .19-.35h1.2a.24.24 0 0 1 .19.11l1.9 2.74 1.9-2.74a.24.24 0 0 1 .19-.11h1.23a.22.22 0 0 1 .19.35l-2.75 4v3.8a.23.23 0 0 1-.23.23h-1.09a.23.23 0 0 1-.23-.23zM101.54 9.9l-1.17-1.35A4.3 4.3 0 1 0 97 10.18a4.32 4.32 0 0 0 2.06-.52l.64.65a.33.33 0 0 0 .28.15h1.3a.35.35 0 0 0 .26-.56zm-3.47-1.49a2.73 2.73 0 0 1-3.81-2.51 2.74 2.74 0 1 1 5.48 0 2.69 2.69 0 0 1-.37 1.36 2.78 2.78 0 0 1-1.3 1.15zM73.85 1.7H71a.22.22 0 0 0-.22.22v3.75a.21.21 0 0 0 .21.21h1.12a.21.21 0 0 0 .21-.21V3.15h1.28a2.77 2.77 0 0 1 2.8 2.74 2.64 2.64 0 0 1-2.69 2.72H71a.23.23 0 0 0-.23.23v1a.23.23 0 0 0 .23.23h2.82a4.18 4.18 0 1 0 0-8.36zM52.58 1.58a4 4 0 0 1 2.89 1.11.22.22 0 0 1 0 .33l-.73.75a.19.19 0 0 1-.3 0 2.83 2.83 0 0 0-1.84-.7A2.71 2.71 0 0 0 50 5.86a2.7 2.7 0 0 0 2.68 2.76 2.86 2.86 0 0 0 1.83-.68.22.22 0 0 1 .3 0l.74.76a.23.23 0 0 1 0 .32 4.1 4.1 0 0 1-2.9 1.16 4.3 4.3 0 1 1 0-8.6zM62.82 1.58a4.3 4.3 0 1 1-4.29 4.31 4.29 4.29 0 0 1 4.29-4.31zm0 7a2.75 2.75 0 1 0-2.74-2.74 2.75 2.75 0 0 0 2.74 2.79zM81.25 1.93a.23.23 0 0 1 .23-.23h4.86a.23.23 0 0 1 .23.23v1a.23.23 0 0 1-.23.23H82.8v2h3a.23.23 0 0 1 .23.23v1a.23.23 0 0 1-.23.23h-3v2.01h3.54a.23.23 0 0 1 .23.23v1a.23.23 0 0 1-.23.23h-4.87a.23.23 0 0 1-.23-.23z"/></svg>